<?xml version="1.0" encoding="utf-8"?>
<svg xmlns="http://www.w3.org/2000/svg"
	xmlns:xlink="http://www.w3.org/1999/xlink"
	width="270px" height="270px" viewBox="0 0 270 270">
<g opacity="0.90"><rect x="0" y="0" width="270" height="270" fill="rgb(255,255,255)"/><path fillRule="evenodd" d="M 269 269C 269 269 269 1 269 1 269 1 1 1 1 1 1 1 1 269 1 269 1 269 269 269 269 269M 270 270C 270 270-0 270-0 270-0 270-0 0-0 0-0 0 270 0 270 0 270 0 270 270 270 270 270 270 270 270 270 270Z" fill="rgb(155,155,155)"/></g></svg>